<?xml version="1.0" encoding="UTF-8"?>
<svg width="545px" height="443px" viewBox="0 0 545 443" version="1.1" xmlns="http://www.w3.org/2000/svg" xmlns:xlink="http://www.w3.org/1999/xlink">
    <!-- Generator: Sketch 64 (93537) - https://sketch.com -->
    <title>Untitled 2</title>
    <desc>Created with Sketch.</desc>
    <g id="Page-1" stroke="none" stroke-width="1" fill="none" fill-rule="evenodd">
        <g id="Group" transform="translate(3.000000, 2.000000)" fill-rule="nonzero">
            <g transform="translate(269.499772, 219.499930) rotate(-30.000000) translate(-269.499772, -219.499930) translate(21.999772, 109.999930)">
                <ellipse id="Oval" stroke="#006666" stroke-width="4" fill="#FFFFFF" cx="247.5" cy="109.5" rx="247.5" ry="109.5"></ellipse>
                <path d="M247.150377,205.281536 C247.12092,55.7251409 247.049072,178.327259 247.150377,14 C120.041834,14 17,56.8198303 17,109.640768 C17,162.461705 120.041834,205.281536 247.150377,205.281536 Z" id="Path" fill="#006666"></path>
                <path d="M91.1953125,129 L84.796875,112.652344 L64.1953125,112.652344 L57.8671875,129 L51.8203125,129 L72.140625,77.390625 L77.1679688,77.390625 L97.3828125,129 L91.1953125,129 Z M82.9335938,107.273438 L76.9570312,91.3476562 C76.1835899,89.3320212 75.3867229,86.8593896 74.5664062,83.9296875 C74.0507787,86.1796988 73.3125048,88.6523303 72.3515625,91.3476562 L66.3046875,107.273438 L82.9335938,107.273438 Z M116.015625,124.886719 C117.04688,124.886719 118.042964,124.810548 119.003906,124.658203 C119.964849,124.505859 120.72656,124.347657 121.289062,124.183594 L121.289062,128.648438 C120.656247,128.953127 119.724616,129.205077 118.494141,129.404297 C117.263666,129.603517 116.156255,129.703125 115.171875,129.703125 C107.718713,129.703125 103.992188,125.777383 103.992188,117.925781 L103.992188,95.0039062 L98.4726562,95.0039062 L98.4726562,92.1914062 L103.992188,89.765625 L106.453125,81.5390625 L109.828125,81.5390625 L109.828125,90.46875 L121.007812,90.46875 L121.007812,95.0039062 L109.828125,95.0039062 L109.828125,117.679688 C109.828125,120.000012 110.378901,121.781244 111.480469,123.023438 C112.582037,124.265631 114.09374,124.886719 116.015625,124.886719 Z M155.355469,129 L155.355469,104.074219 C155.355469,100.933578 154.640632,98.5898515 153.210938,97.0429688 C151.781243,95.496086 149.542984,94.7226562 146.496094,94.7226562 C142.441386,94.7226562 139.482431,95.8242077 137.619141,98.0273438 C135.75585,100.23048 134.824219,103.839819 134.824219,108.855469 L134.824219,129 L128.988281,129 L128.988281,74.296875 L134.824219,74.296875 L134.824219,90.8554688 C134.824219,92.8476662 134.73047,94.4999934 134.542969,95.8125 L134.894531,95.8125 C136.042974,93.9609282 137.677724,92.5019585 139.798828,91.4355469 C141.919932,90.3691353 144.33983,89.8359375 147.058594,89.8359375 C151.769555,89.8359375 155.302723,90.9550669 157.658203,93.1933594 C160.013684,95.4316518 161.191406,98.9882569 161.191406,103.863281 L161.191406,129 L155.355469,129 Z M189.457031,129.703125 C183.76169,129.703125 179.267595,127.968767 175.974609,124.5 C172.681624,121.031233 171.035156,116.214875 171.035156,110.050781 C171.035156,103.839813 172.564438,98.9062683 175.623047,95.25 C178.681656,91.5937317 182.789037,89.765625 187.945312,89.765625 C192.773462,89.765625 196.593736,91.3534997 199.40625,94.5292969 C202.218764,97.705094 203.625,101.894505 203.625,107.097656 L203.625,110.789062 L177.082031,110.789062 C177.199219,115.312523 178.341786,118.746082 180.509766,121.089844 C182.677745,123.433605 185.730449,124.605469 189.667969,124.605469 C193.816427,124.605469 197.917948,123.73829 201.972656,122.003906 L201.972656,127.207031 C199.910146,128.097661 197.958994,128.736326 196.119141,129.123047 C194.279288,129.509768 192.058607,129.703125 189.457031,129.703125 Z M187.875,94.6523438 C184.781235,94.6523438 182.314462,95.6601462 180.474609,97.6757812 C178.634756,99.6914163 177.550783,102.480451 177.222656,106.042969 L197.367188,106.042969 C197.367188,102.363263 196.546883,99.5449317 194.90625,97.5878906 C193.265617,95.6308496 190.92189,94.6523438 187.875,94.6523438 Z M239.941406,129 L239.941406,104.074219 C239.941406,100.933578 239.22657,98.5898515 237.796875,97.0429688 C236.36718,95.496086 234.128921,94.7226562 231.082031,94.7226562 C227.050761,94.7226562 224.097666,95.8124891 222.222656,97.9921875 C220.347647,100.171886 219.410156,103.769506 219.410156,108.785156 L219.410156,129 L213.574219,129 L213.574219,90.46875 L218.320312,90.46875 L219.269531,95.7421875 L219.550781,95.7421875 C220.7461,93.8437405 222.421864,92.3730521 224.578125,91.3300781 C226.734386,90.2871042 229.136706,89.765625 231.785156,89.765625 C236.425804,89.765625 239.917957,90.8847544 242.261719,93.1230469 C244.60548,95.3613393 245.777344,98.9413816 245.777344,103.863281 L245.777344,129 L239.941406,129 Z M281.460938,129 L280.300781,123.515625 L280.019531,123.515625 C278.097647,125.9297 276.18165,127.564449 274.271484,128.419922 C272.361319,129.275395 269.976577,129.703125 267.117188,129.703125 C263.296856,129.703125 260.302745,128.71876 258.134766,126.75 C255.966786,124.78124 254.882812,121.980487 254.882812,118.347656 C254.882812,110.566367 261.105407,106.488283 273.550781,106.113281 L280.089844,105.902344 L280.089844,103.511719 C280.089844,100.488266 279.43946,98.2558666 278.138672,96.8144531 C276.837884,95.3730397 274.757827,94.6523438 271.898438,94.6523438 C268.687484,94.6523438 265.054708,95.6367089 261,97.6054688 L259.207031,93.140625 C261.105478,92.1093698 263.185536,91.3007842 265.447266,90.7148438 C267.708996,90.1289033 269.976551,89.8359375 272.25,89.8359375 C276.843773,89.8359375 280.248036,90.8554586 282.462891,92.8945312 C284.677745,94.9336039 285.785156,98.2031025 285.785156,102.703125 L285.785156,129 L281.460938,129 Z M314.085938,129.703125 C308.390597,129.703125 303.896501,127.968767 300.603516,124.5 C297.31053,121.031233 295.664062,116.214875 295.664062,110.050781 C295.664062,103.839813 297.193344,98.9062683 300.251953,95.25 C303.310562,91.5937317 307.417943,89.765625 312.574219,89.765625 C317.402368,89.765625 321.222642,91.3534997 324.035156,94.5292969 C326.84767,97.705094 328.253906,101.894505 328.253906,107.097656 L328.253906,110.789062 L301.710938,110.789062 C301.828126,115.312523 302.970692,118.746082 305.138672,121.089844 C307.306651,123.433605 310.359355,124.605469 314.296875,124.605469 C318.445333,124.605469 322.546855,123.73829 326.601562,122.003906 L326.601562,127.207031 C324.539052,128.097661 322.5879,128.736326 320.748047,129.123047 C318.908194,129.509768 316.687513,129.703125 314.085938,129.703125 Z M343.6875,90.46875 L343.6875,115.464844 C343.6875,118.605484 344.402337,120.949211 345.832031,122.496094 C347.261726,124.042976 349.499985,124.816406 352.546875,124.816406 C356.578145,124.816406 359.525381,123.714855 361.388672,121.511719 C363.251962,119.308583 364.183594,115.710962 364.183594,110.71875 L364.183594,90.46875 L370.019531,90.46875 L370.019531,129 L365.203125,129 L364.359375,123.832031 L364.042969,123.832031 C362.84765,125.730478 361.189464,127.183589 359.068359,128.191406 C356.947255,129.199224 354.527357,129.703125 351.808594,129.703125 C347.12107,129.703125 343.61134,128.589855 341.279297,126.363281 C338.947254,124.136708 337.78125,120.574243 337.78125,115.675781 L337.78125,90.46875 L343.6875,90.46875 Z M431.507812,129 L431.507812,103.933594 C431.507812,100.863266 430.851569,98.5605546 429.539062,97.0253906 C428.226556,95.4902267 426.187514,94.7226562 423.421875,94.7226562 C419.789044,94.7226562 417.105477,95.7656146 415.371094,97.8515625 C413.63671,99.9375104 412.769531,103.148416 412.769531,107.484375 L412.769531,129 L406.933594,129 L406.933594,103.933594 C406.933594,100.863266 406.27735,98.5605546 404.964844,97.0253906 C403.652337,95.4902267 401.601576,94.7226562 398.8125,94.7226562 C395.156232,94.7226562 392.478524,95.8183484 390.779297,98.0097656 C389.08007,100.201183 388.230469,103.792944 388.230469,108.785156 L388.230469,129 L382.394531,129 L382.394531,90.46875 L387.140625,90.46875 L388.089844,95.7421875 L388.371094,95.7421875 C389.472662,93.8671781 391.025381,92.402349 393.029297,91.3476562 C395.033213,90.2929635 397.277331,89.765625 399.761719,89.765625 C405.785186,89.765625 409.722647,91.9452907 411.574219,96.3046875 L411.855469,96.3046875 C413.003912,94.2890524 414.667958,92.6953184 416.847656,91.5234375 C419.027355,90.3515566 421.511705,89.765625 424.300781,89.765625 C428.660178,89.765625 431.923817,90.8847544 434.091797,93.1230469 C436.259776,95.3613393 437.34375,98.9413816 437.34375,103.863281 L437.34375,129 L431.507812,129 Z" id="Shape" fill="#FFFFFF"></path>
                <path d="M281.578125,129.164063 L280.417969,123.679688 L280.136719,123.679688 C278.214834,126.093762 276.298838,127.728511 274.388672,128.583984 C272.478506,129.439457 270.093764,129.867188 267.234375,129.867188 C263.414043,129.867188 260.419933,128.882822 258.251953,126.914063 C256.083974,124.945303 255,122.144549 255,118.511719 C255,110.73043 261.222594,106.652346 273.667969,106.277344 L280.207031,106.066406 L280.207031,103.675781 C280.207031,100.652329 279.556647,98.4199291 278.255859,96.9785156 C276.955072,95.5371022 274.875014,94.8164063 272.015625,94.8164063 C268.804671,94.8164063 265.171895,95.8007714 261.117188,97.7695313 L259.324219,93.3046875 C261.222666,92.2734323 263.302723,91.4648467 265.564453,90.8789063 C267.826183,90.2929658 270.093739,90 272.367188,90 C276.96096,90 280.365223,91.0195211 282.580078,93.0585938 C284.794933,95.0976664 285.902344,98.367165 285.902344,102.867188 L285.902344,129.164063 L281.578125,129.164063 Z M268.277344,124.886719 C271.910174,124.886719 274.763662,123.890635 276.837891,121.898438 C278.91212,119.90624 279.949219,117.117205 279.949219,113.53125 L279.949219,110.050781 L274.113281,110.296875 C269.472633,110.460938 266.126963,111.181634 264.076172,112.458984 C262.02538,113.736335 261,115.722643 261,118.417969 C261,120.527354 261.638665,122.132807 262.916016,123.234375 C264.193366,124.335943 265.980457,124.886719 268.277344,124.886719 Z M314.421875,129.9375 C308.726534,129.9375 304.232438,128.203142 300.939453,124.734375 C297.646468,121.265608 296,116.44925 296,110.285156 C296,104.074188 297.529282,99.1406433 300.587891,95.484375 C303.6465,91.8281067 307.75388,90 312.910156,90 C317.738305,90 321.55858,91.5878747 324.371094,94.7636719 C327.183608,97.939469 328.589844,102.12888 328.589844,107.332031 L328.589844,111.023438 L302.046875,111.023438 C302.164063,115.546898 303.30663,118.980457 305.474609,121.324219 C307.642589,123.66798 310.695293,124.839844 314.632813,124.839844 C318.781271,124.839844 322.882792,123.972665 326.9375,122.238281 L326.9375,127.441406 C324.87499,128.332036 322.923837,128.970701 321.083984,129.357422 C319.244131,129.744143 317.023451,129.9375 314.421875,129.9375 Z M312.503906,94.6523438 C309.410141,94.6523438 306.943369,95.6601462 305.103516,97.6757813 C303.263663,99.6914163 302.179689,102.480451 301.851563,106.042969 L321.996094,106.042969 C321.996094,102.363263 321.175789,99.5449317 319.535156,97.5878906 C317.894523,95.6308496 315.550796,94.6523438 312.503906,94.6523438 Z M343.90625,90 L343.90625,114.996094 C343.90625,118.136734 344.621087,120.480461 346.050781,122.027344 C347.480476,123.574226 349.718735,124.347656 352.765625,124.347656 C356.796895,124.347656 359.744131,123.246105 361.607422,121.042969 C363.470712,118.839833 364.402344,115.242212 364.402344,110.25 L364.402344,90 L370.238281,90 L370.238281,128.53125 L365.421875,128.53125 L364.578125,123.363281 L364.261719,123.363281 C363.0664,125.261728 361.408214,126.714839 359.287109,127.722656 C357.166005,128.730474 354.746107,129.234375 352.027344,129.234375 C347.33982,129.234375 343.83009,128.121105 341.498047,125.894531 C339.166004,123.667958 338,120.105493 338,115.207031 L338,90 L343.90625,90 Z M431.113281,129.234375 L431.113281,104.167969 C431.113281,101.097641 430.457038,98.7949296 429.144531,97.2597656 C427.832025,95.7246017 425.792983,94.9570312 423.027344,94.9570312 C419.394513,94.9570312 416.710946,95.9999896 414.976563,98.0859375 C413.242179,100.171885 412.375,103.382791 412.375,107.71875 L412.375,129.234375 L406.539063,129.234375 L406.539063,104.167969 C406.539063,101.097641 405.882819,98.7949296 404.570313,97.2597656 C403.257806,95.7246017 401.207045,94.9570312 398.417969,94.9570312 C394.7617,94.9570312 392.083993,96.0527234 390.384766,98.2441406 C388.685538,100.435558 387.835938,104.027319 387.835938,109.019531 L387.835938,129.234375 L382,129.234375 L382,90.703125 L386.746094,90.703125 L387.695313,95.9765625 L387.976563,95.9765625 C389.078131,94.1015531 390.630849,92.636724 392.634766,91.5820312 C394.638682,90.5273385 396.8828,90 399.367188,90 C405.390655,90 409.328116,92.1796657 411.179688,96.5390625 L411.460938,96.5390625 C412.609381,94.5234274 414.273427,92.9296934 416.453125,91.7578125 C418.632823,90.5859316 421.117174,90 423.90625,90 C428.265647,90 431.529286,91.1191294 433.697266,93.3574219 C435.865245,95.5957143 436.949219,99.1757566 436.949219,104.097656 L436.949219,129.234375 L431.113281,129.234375 Z" id="Shape" fill="#006666"></path>
            </g>
        </g>
    </g>
</svg>